<svg version="1.1" id="Layer_1" xmlns="http://www.w3.org/2000/svg" xmlns:xlink="http://www.w3.org/1999/xlink" x="0px" y="0px"
	 width="100%" viewBox="0 0 192 192" enable-background="new 0 0 192 192" xml:space="preserve">
<path fill="#000000" opacity="1.000000" stroke="none" 
	d="
M193.000000,65.000000 
	C193.000000,107.972321 193.000000,150.444641 193.000000,192.958481 
	C129.069382,192.958481 65.138741,192.958481 1.104045,192.958481 
	C1.104045,129.111191 1.104045,65.222168 1.104045,1.166570 
	C64.999641,1.166570 128.999786,1.166570 193.000000,1.166570 
	C193.000000,22.194323 193.000000,43.347160 193.000000,65.000000 
M110.721710,183.672882 
	C110.841949,183.806015 110.962189,183.939163 111.006126,184.931763 
	C111.006126,186.549103 111.006126,188.166443 111.006126,189.784546 
	C116.357376,189.707336 119.891685,178.837372 118.358925,167.246277 
	C116.715492,168.301178 115.392479,169.150421 114.720306,169.581879 
	C113.122925,168.831451 110.345879,168.233704 110.261909,167.373184 
	C109.698128,161.595093 105.829552,163.046204 102.290001,163.135880 
	C102.290001,170.523834 102.290001,177.723007 102.290001,185.904312 
	C105.350578,184.900925 107.870583,184.074738 110.721710,183.672882 
M20.996141,37.887001 
	C24.317305,47.241116 28.098597,56.468716 30.723118,66.014366 
	C31.711542,69.609375 32.997303,70.147499 35.969086,70.024643 
	C39.687626,69.870911 38.983253,67.190987 38.986073,64.966179 
	C39.009743,46.307693 39.004807,27.649168 38.987873,8.990673 
	C38.986713,7.714652 38.819168,6.438781 38.738605,5.298653 
	C36.006313,5.298653 33.600300,5.298653 30.996830,5.298653 
	C30.996830,16.193806 30.996830,26.791603 30.996830,37.389400 
	C30.757139,37.453018 30.517448,37.516632 30.277758,37.580250 
	C26.416849,26.681431 22.555941,15.782610 18.924393,5.531241 
	C12.900605,3.718102 11.897705,6.229533 11.953403,10.958858 
	C12.167227,29.115068 11.993032,47.275639 12.126247,65.433388 
	C12.137328,66.943741 13.386091,69.722191 14.024254,69.711876 
	C15.958258,69.680618 17.874777,68.567749 19.980646,66.976257 
	C19.987099,58.494713 19.947945,50.012653 20.043192,41.532104 
	C20.059807,40.053001 20.642620,38.580254 20.996141,37.887001 
M17.002308,142.267227 
	C17.668205,146.092590 18.514349,149.898132 18.937763,153.750137 
	C19.228682,156.396805 18.475641,159.109360 22.780146,159.093750 
	C26.887726,159.078888 27.662189,156.688721 28.003138,153.508286 
	C29.112900,143.156189 30.238848,132.805847 31.358564,122.454826 
	C33.205334,132.985947 34.617634,143.567490 35.992008,154.153961 
	C36.327190,156.735840 37.226028,158.169617 40.312408,158.114700 
	C43.083492,158.065399 44.690483,157.296387 44.973598,154.535049 
	C45.690426,147.543594 46.212452,140.530411 47.032700,133.551804 
	C47.866516,126.457695 48.996159,119.398834 49.935551,112.316490 
	C50.735111,106.288361 51.448364,100.248772 52.183990,94.341217 
	C48.573772,94.341217 45.836681,94.341217 43.716049,94.341217 
	C42.475540,105.061745 41.281822,115.377930 40.088100,125.694122 
	C38.212967,117.239410 36.939678,108.875961 36.051998,100.471779 
	C35.314228,93.486946 34.985161,93.077774 28.244930,94.644424 
	C26.801771,105.974060 25.366495,117.241798 23.931221,128.509537 
	C23.701052,128.477722 23.470884,128.445923 23.240717,128.414124 
	C22.178782,116.937531 21.116846,105.460945 20.071440,94.162979 
	C16.606117,94.162979 13.960354,94.162979 11.823908,94.162979 
	C12.270759,99.975739 12.534512,105.687614 13.184161,111.355263 
	C14.332298,121.371803 15.715402,131.361404 17.002308,142.267227 
M164.062698,157.377838 
	C166.611633,157.648865 169.160553,157.919891 172.194489,158.242477 
	C174.375031,141.185806 176.482819,124.698303 178.622635,107.960335 
	C174.369217,108.237923 170.396820,106.558578 170.015671,111.782509 
	C169.621506,117.185158 169.342285,122.596130 168.994171,128.002258 
	C168.908096,129.338852 168.749954,130.670792 168.624939,132.004883 
	C168.193314,132.002792 167.761673,132.000717 167.330048,131.998627 
	C166.518600,123.982544 165.707169,115.966461 164.923294,108.222824 
	C161.867172,108.222824 159.590698,108.222824 157.493591,108.222824 
	C156.539993,115.500351 155.617981,122.536873 154.695969,129.573380 
	C153.430466,124.523338 152.515121,119.453575 152.049683,114.342827 
	C151.435715,107.601067 151.587494,107.587242 144.000076,108.440048 
	C144.000076,109.505180 143.890228,110.651207 144.016708,111.770531 
	C145.660858,126.321388 147.254990,140.879547 149.183487,155.393143 
	C149.321625,156.432617 151.879318,157.562134 153.469940,157.894928 
	C155.549881,158.330109 157.739609,158.344040 158.056442,155.029800 
	C158.740753,147.871399 159.744095,140.743500 160.616898,133.603119 
	C160.834717,133.565414 161.052536,133.527695 161.270355,133.489990 
	C162.181671,141.146927 163.092987,148.803879 164.062698,157.377838 
M93.999702,117.608292 
	C93.333366,123.254982 92.162231,128.900330 92.147171,134.548767 
	C92.132996,139.861526 92.779198,145.335007 94.214081,150.434082 
	C95.098083,153.575500 97.451904,157.245102 100.182129,158.620667 
	C102.283012,159.679153 105.999702,157.530594 108.571907,156.910782 
	C110.750587,157.372910 113.095032,157.870209 115.712204,158.425354 
	C115.712204,134.850677 115.712204,112.006554 115.712204,89.289215 
	C113.351616,89.289215 111.284195,89.289215 108.833298,89.289215 
	C108.833298,96.544525 108.833298,103.518738 108.833298,109.576523 
	C106.793167,108.712067 104.824402,107.307487 102.742195,107.112106 
	C98.146400,106.680878 95.201744,110.182983 93.999702,117.608292 
M171.392929,184.153687 
	C172.423904,184.490112 173.454865,184.826538 175.448990,185.477249 
	C174.836716,182.677994 174.253220,180.713837 174.014496,178.708633 
	C173.802200,176.925262 173.390182,174.822067 174.088089,173.341751 
	C175.813126,169.682693 175.363281,167.619156 170.849579,167.550110 
	C170.849579,165.532898 170.849579,163.895920 170.849579,162.431915 
	C168.216965,162.431915 165.787338,162.431915 163.120590,162.431915 
	C163.037979,164.021484 162.945068,165.809097 162.898514,166.705032 
	C161.686493,166.307190 160.457916,165.903885 159.229324,165.500595 
	C159.067474,169.480255 155.971725,167.431091 154.134445,168.034454 
	C152.712265,168.501495 151.391922,169.278656 149.886780,169.983276 
	C149.245026,169.530548 148.211258,168.209488 147.067932,168.106659 
	C143.757874,167.808960 140.197128,167.286087 137.117706,168.176254 
	C132.987762,169.370102 131.507538,167.769012 129.622086,164.589722 
	C129.022232,163.578232 124.596695,163.332352 123.547333,164.373901 
	C120.461708,167.436539 121.932182,174.658371 125.701744,177.722733 
	C124.428543,177.933777 123.229424,178.132538 120.247246,178.626846 
	C122.646866,181.360977 123.916275,184.107285 125.906250,184.808426 
	C130.263336,186.343567 130.900269,182.526749 131.877762,179.443726 
	C131.966171,181.228165 132.054596,183.012604 132.185532,185.655319 
	C138.243530,181.778259 145.090240,187.492050 150.765945,183.349487 
	C151.099838,183.664551 151.709244,184.736633 152.520538,184.921188 
	C156.569519,185.842316 158.641891,183.213165 158.020782,178.346649 
	C157.817551,176.754227 157.988846,175.114014 157.988846,173.495651 
	C158.351334,173.496109 158.713837,173.496552 159.076324,173.496994 
	C159.076324,177.222305 159.076324,180.947617 159.076324,184.795349 
	C161.494110,184.795349 163.563599,184.795349 166.088165,184.795349 
	C166.088165,178.899033 166.088165,173.190872 166.088165,167.482712 
	C166.373611,167.485672 166.659073,167.488617 166.944519,167.491562 
	C166.944519,173.266495 166.944519,179.041428 166.944519,185.025528 
	C168.497421,184.913345 169.639954,184.830795 171.392929,184.153687 
M85.000542,22.726629 
	C85.000099,34.204247 84.939240,45.682285 85.018692,57.159351 
	C85.080109,66.031044 89.677193,71.142517 96.414711,69.954277 
	C97.572792,69.750031 98.705978,68.484077 99.729843,68.619827 
	C102.331680,68.964775 104.865013,69.826317 107.999969,70.627861 
	C107.999969,54.934582 108.000343,40.489895 107.999817,26.045206 
	C107.999535,18.214647 107.778259,18.054617 100.000259,20.535439 
	C100.000259,29.410471 100.207787,38.385059 99.897194,47.341679 
	C99.774490,50.880081 98.498070,54.378468 97.477844,59.155132 
	C90.717621,52.629715 93.501511,45.816208 93.101814,39.759312 
	C92.670013,33.215893 93.004089,26.621931 93.004089,18.831940 
	C89.699875,20.048603 87.354584,20.912178 85.000542,22.726629 
M42.029140,53.700790 
	C42.352909,56.453671 42.311390,59.316772 43.099716,61.929485 
	C43.945339,64.732086 44.980942,68.811661 47.000786,69.600098 
	C49.748180,70.672523 53.507683,69.152092 56.261032,68.813850 
	C58.738014,69.341820 61.092358,69.843651 63.999401,70.463295 
	C63.999401,56.136337 64.118736,42.671085 63.938519,29.209843 
	C63.869946,24.087854 58.824196,19.653072 54.584606,18.872349 
	C47.590836,17.584440 41.411121,27.997477 43.904114,35.906151 
	C47.266838,34.689194 50.580074,33.490147 54.617447,32.029034 
	C55.203983,33.396183 56.271797,35.885136 57.469742,38.677410 
	C51.452702,39.501534 45.610622,39.086906 43.739288,45.778481 
	C43.089645,48.101509 42.611938,50.472618 42.029140,53.700790 
M143.000000,126.692253 
	C141.885513,121.861649 141.041626,116.946541 139.568161,112.228043 
	C138.454514,108.661819 135.603302,106.939072 131.668747,106.956154 
	C127.626808,106.973701 124.805641,108.859848 123.313187,112.351593 
	C118.006714,124.766586 118.533226,137.528290 121.868721,150.256454 
	C122.977844,154.488815 125.137779,158.467331 130.340652,158.979248 
	C136.466736,159.582001 141.388962,154.974197 141.955933,147.855667 
	C142.491150,141.135727 142.666412,134.387085 143.000000,126.692253 
M129.000671,49.385139 
	C129.344421,53.125366 129.447937,56.906792 130.080902,60.597420 
	C131.488007,68.801971 140.569031,73.471245 145.764404,68.651436 
	C149.865280,64.847008 151.959030,60.073387 150.368561,52.774582 
	C147.437943,54.317406 145.125885,55.899490 142.569839,56.735855 
	C141.159973,57.197182 138.524994,56.979206 137.878891,56.058910 
	C136.613464,54.256466 136.353989,51.747757 135.495926,48.933746 
	C141.108047,48.933746 145.864807,48.933746 151.900253,48.933746 
	C150.893738,41.192261 150.587357,33.824341 148.843567,26.813974 
	C147.050980,19.607443 143.422760,18.425674 138.345337,18.982815 
	C135.226669,19.325024 130.327408,24.698456 130.025024,28.734480 
	C129.534393,35.283142 129.327362,41.853054 129.000671,49.385139 
M89.000000,145.488617 
	C88.666939,135.264557 88.660851,125.012283 87.782951,114.835220 
	C87.548088,112.112511 85.172707,108.346840 82.826790,107.385101 
	C80.559769,106.455711 77.063698,108.524261 74.073929,109.284447 
	C72.983360,106.333794 69.801605,108.496674 67.283134,108.195808 
	C67.283134,125.025665 67.283134,141.427582 67.283134,157.713776 
	C69.640335,157.713776 71.709076,157.713776 73.521805,157.713776 
	C74.051208,145.343048 74.567993,133.267166 75.086029,121.162086 
	C82.345810,120.621925 81.832733,125.182877 81.915810,128.577972 
	C82.154510,138.332230 81.999977,148.096100 81.999977,157.703903 
	C84.657333,157.703903 86.726257,157.703903 89.000000,157.703903 
	C89.000000,153.768402 89.000000,150.125351 89.000000,145.488617 
M181.439926,40.966694 
	C178.745972,39.247791 175.881866,37.730637 173.460388,35.688629 
	C172.721573,35.065613 173.200317,32.998768 173.121460,31.593161 
	C174.593277,31.738846 177.234604,31.590656 177.356445,32.075569 
	C178.609192,37.060997 182.088379,34.355667 184.999023,34.933327 
	C184.999023,33.159607 185.118027,31.836704 184.979416,30.541370 
	C184.177139,23.044413 180.963562,18.398621 174.490311,18.938744 
	C169.848373,19.326061 167.316605,21.412270 165.690872,28.856081 
	C163.858337,37.246841 164.067780,48.058567 175.236526,51.841171 
	C176.505646,52.270996 177.393433,54.633003 177.839249,56.267826 
	C178.004257,56.872898 176.387039,57.963982 175.582626,58.833408 
	C174.390091,57.718903 173.155731,56.644417 172.029129,55.466831 
	C171.665146,55.086391 171.584274,54.435104 171.501419,54.227364 
	C168.749710,54.227364 166.456787,54.227364 163.665298,54.227364 
	C164.477905,57.662102 164.720261,61.023453 166.103485,63.820660 
	C167.287521,66.215134 169.486191,69.183693 171.756577,69.728195 
	C175.764877,70.689507 180.637177,71.000771 183.158493,66.251434 
	C186.163361,60.591228 188.486359,47.682259 181.439926,40.966694 
M72.500565,68.037720 
	C75.451889,68.931335 78.403206,69.824951 81.822533,70.860268 
	C81.822533,65.979301 81.822533,62.358757 81.822533,58.729824 
	C76.116409,56.562443 76.699768,54.593227 77.319885,32.273132 
	C78.780281,32.071239 80.316734,31.858833 81.808617,31.652588 
	C81.808617,27.673573 81.808617,24.059940 81.808617,20.335400 
	C80.119080,20.058947 78.594131,19.809423 76.838165,19.522099 
	C76.838165,15.608663 76.838165,11.995609 76.838165,8.242535 
	C74.484055,8.242535 72.422310,8.242535 69.999512,8.242535 
	C69.999512,10.940677 70.185471,13.423109 69.920784,15.856527 
	C69.789124,17.067001 69.135788,18.717154 68.194885,19.258579 
	C63.755154,21.813347 66.619095,25.823174 66.206276,29.073271 
	C66.059937,30.225368 68.236443,31.672514 69.999718,33.746040 
	C69.999718,42.123436 69.885185,51.602734 70.087280,61.075268 
	C70.132835,63.210232 71.282265,65.321648 72.500565,68.037720 
M123.729256,33.017368 
	C126.996864,33.416096 128.358673,31.962446 128.010208,28.717041 
	C127.667946,25.529526 127.411446,22.332802 127.013161,18.009676 
	C123.755501,19.272333 121.431625,20.173059 120.374336,20.582861 
	C117.171661,20.289118 114.848663,20.076056 112.226761,19.835577 
	C112.226761,36.733059 112.226761,53.146358 112.226761,69.763123 
	C114.492180,69.763123 116.549812,69.763123 118.999657,69.763123 
	C118.999657,61.736893 118.557411,53.906326 119.170372,46.159256 
	C119.521614,41.719929 121.587090,37.416229 123.729256,33.017368 
M63.000000,115.563744 
	C63.000000,113.119141 63.000000,110.674530 63.000000,108.263359 
	C60.066704,108.263359 57.660717,108.263359 55.262806,108.263359 
	C55.262806,124.942070 55.262806,141.356079 55.262806,157.733261 
	C57.941277,157.733261 60.346268,157.733261 63.000000,157.733261 
	C63.000000,143.827255 63.000000,130.186539 63.000000,115.563744 
M158.719772,5.007054 
	C158.147842,5.599531 157.180740,6.125250 157.067551,6.795228 
	C156.280350,11.455156 155.561386,16.132816 155.035477,20.828863 
	C154.552277,25.143391 154.338196,29.488054 154.004913,33.827538 
	C161.752014,34.164539 161.729752,34.163601 162.023102,27.213823 
	C162.070282,26.096153 162.523315,24.999121 162.607529,23.878927 
	C163.071426,17.707798 163.479050,11.532438 163.930679,5.001390 
	C162.231598,5.001390 160.927261,5.001390 158.719772,5.007054 
M55.199718,90.284348 
	C55.133194,93.266006 54.836761,96.268608 55.105450,99.219742 
	C55.224491,100.527237 56.480328,102.767921 57.231239,102.772530 
	C58.972878,102.783211 61.523567,102.194405 62.307793,100.945412 
	C64.217995,97.903130 64.692001,94.523560 62.595818,90.929886 
	C60.588104,87.487892 58.712711,86.736809 55.199718,90.284348 
z"/>
<path fill="#FFFFFF" opacity="1.000000" stroke="none" 
	d="
M17.001232,141.814758 
	C15.715402,131.361404 14.332298,121.371803 13.184161,111.355263 
	C12.534512,105.687614 12.270759,99.975739 11.823908,94.162979 
	C13.960354,94.162979 16.606117,94.162979 20.071440,94.162979 
	C21.116846,105.460945 22.178782,116.937531 23.240717,128.414124 
	C23.470884,128.445923 23.701052,128.477722 23.931221,128.509537 
	C25.366495,117.241798 26.801771,105.974060 28.244930,94.644424 
	C34.985161,93.077774 35.314228,93.486946 36.051998,100.471779 
	C36.939678,108.875961 38.212967,117.239410 40.088100,125.694122 
	C41.281822,115.377930 42.475540,105.061745 43.716049,94.341217 
	C45.836681,94.341217 48.573772,94.341217 52.183990,94.341217 
	C51.448364,100.248772 50.735111,106.288361 49.935551,112.316490 
	C48.996159,119.398834 47.866516,126.457695 47.032700,133.551804 
	C46.212452,140.530411 45.690426,147.543594 44.973598,154.535049 
	C44.690483,157.296387 43.083492,158.065399 40.312408,158.114700 
	C37.226028,158.169617 36.327190,156.735840 35.992008,154.153961 
	C34.617634,143.567490 33.205334,132.985947 31.358564,122.454826 
	C30.238848,132.805847 29.112900,143.156189 28.003138,153.508286 
	C27.662189,156.688721 26.887726,159.078888 22.780146,159.093750 
	C18.475641,159.109360 19.228682,156.396805 18.937763,153.750137 
	C18.514349,149.898132 17.668205,146.092590 17.001232,141.814758 
z"/>
<path fill="#FFD100" opacity="1.000000" stroke="none" 
	d="
M19.798107,67.876259 
	C17.874777,68.567749 15.958258,69.680618 14.024254,69.711876 
	C13.386091,69.722191 12.137328,66.943741 12.126247,65.433388 
	C11.993032,47.275639 12.167227,29.115068 11.953403,10.958858 
	C11.897705,6.229533 12.900605,3.718102 18.924393,5.531241 
	C22.555941,15.782610 26.416849,26.681431 30.277758,37.580250 
	C30.517448,37.516632 30.757139,37.453018 30.996830,37.389400 
	C30.996830,26.791603 30.996830,16.193806 30.996830,5.298653 
	C33.600300,5.298653 36.006313,5.298653 38.738605,5.298653 
	C38.819168,6.438781 38.986713,7.714652 38.987873,8.990673 
	C39.004807,27.649168 39.009743,46.307693 38.986073,64.966179 
	C38.983253,67.190987 39.687626,69.870911 35.969086,70.024643 
	C32.997303,70.147499 31.711542,69.609375 30.723118,66.014366 
	C28.098597,56.468716 24.317305,47.241116 20.877600,37.186638 
	C20.350431,35.930855 19.941807,35.375431 18.997694,34.092144 
	C18.997694,41.839306 18.903019,48.561485 19.032288,55.279350 
	C19.113152,59.481674 19.531303,63.677513 19.798107,67.876259 
z"/>
<path fill="#FFFFFF" opacity="1.000000" stroke="none" 
	d="
M164.033508,156.919327 
	C163.092987,148.803879 162.181671,141.146927 161.270355,133.489990 
	C161.052536,133.527695 160.834717,133.565414 160.616898,133.603119 
	C159.744095,140.743500 158.740753,147.871399 158.056442,155.029800 
	C157.739609,158.344040 155.549881,158.330109 153.469940,157.894928 
	C151.879318,157.562134 149.321625,156.432617 149.183487,155.393143 
	C147.254990,140.879547 145.660858,126.321388 144.016708,111.770531 
	C143.890228,110.651207 144.000076,109.505180 144.000076,108.440048 
	C151.587494,107.587242 151.435715,107.601067 152.049683,114.342827 
	C152.515121,119.453575 153.430466,124.523338 154.695969,129.573380 
	C155.617981,122.536873 156.539993,115.500351 157.493591,108.222824 
	C159.590698,108.222824 161.867172,108.222824 164.923294,108.222824 
	C165.707169,115.966461 166.518600,123.982544 167.330048,131.998627 
	C167.761673,132.000717 168.193314,132.002792 168.624939,132.004883 
	C168.749954,130.670792 168.908096,129.338852 168.994171,128.002258 
	C169.342285,122.596130 169.621506,117.185158 170.015671,111.782509 
	C170.396820,106.558578 174.369217,108.237923 178.622635,107.960335 
	C176.482819,124.698303 174.375031,141.185806 172.194489,158.242477 
	C169.160553,157.919891 166.611633,157.648865 164.033508,156.919327 
z"/>
<path fill="#FFFFFF" opacity="1.000000" stroke="none" 
	d="
M93.999878,117.178177 
	C95.201744,110.182983 98.146400,106.680878 102.742195,107.112106 
	C104.824402,107.307487 106.793167,108.712067 108.833298,109.576523 
	C108.833298,103.518738 108.833298,96.544525 108.833298,89.289215 
	C111.284195,89.289215 113.351616,89.289215 115.712204,89.289215 
	C115.712204,112.006554 115.712204,134.850677 115.712204,158.425354 
	C113.095032,157.870209 110.750587,157.372910 108.571907,156.910782 
	C105.999702,157.530594 102.283012,159.679153 100.182129,158.620667 
	C97.451904,157.245102 95.098083,153.575500 94.214081,150.434082 
	C92.779198,145.335007 92.132996,139.861526 92.147171,134.548767 
	C92.162231,128.900330 93.333366,123.254982 93.999878,117.178177 
M109.000000,134.345062 
	C109.016731,128.871216 108.870720,123.460396 103.673721,119.527222 
	C99.477173,127.755554 98.337227,135.588699 102.297859,143.640137 
	C102.739456,144.537872 103.640007,145.209839 104.327721,145.986496 
	C105.157036,145.166382 106.386742,144.488586 106.738579,143.498749 
	C107.691566,140.817627 108.271828,138.004044 109.000000,134.345062 
z"/>
<path fill="#FFFFFF" opacity="1.000000" stroke="none" 
	d="
M171.087708,184.450974 
	C169.639954,184.830795 168.497421,184.913345 166.944519,185.025528 
	C166.944519,179.041428 166.944519,173.266495 166.944519,167.491562 
	C166.659073,167.488617 166.373611,167.485672 166.088165,167.482712 
	C166.088165,173.190872 166.088165,178.899033 166.088165,184.795349 
	C163.563599,184.795349 161.494110,184.795349 159.076324,184.795349 
	C159.076324,180.947617 159.076324,177.222305 159.076324,173.496994 
	C158.713837,173.496552 158.351334,173.496109 157.988846,173.495651 
	C157.988846,175.114014 157.817551,176.754227 158.020782,178.346649 
	C158.641891,183.213165 156.569519,185.842316 152.520538,184.921188 
	C151.709244,184.736633 151.099838,183.664551 150.765945,183.349487 
	C145.090240,187.492050 138.243530,181.778259 132.185532,185.655319 
	C132.054596,183.012604 131.966171,181.228165 131.877762,179.443726 
	C130.900269,182.526749 130.263336,186.343567 125.906250,184.808426 
	C123.916275,184.107285 122.646866,181.360977 120.247246,178.626846 
	C123.229424,178.132538 124.428543,177.933777 125.701744,177.722733 
	C121.932182,174.658371 120.461708,167.436539 123.547333,164.373901 
	C124.596695,163.332352 129.022232,163.578232 129.622086,164.589722 
	C131.507538,167.769012 132.987762,169.370102 137.117706,168.176254 
	C140.197128,167.286087 143.757874,167.808960 147.067932,168.106659 
	C148.211258,168.209488 149.245026,169.530548 149.886780,169.983276 
	C151.391922,169.278656 152.712265,168.501495 154.134445,168.034454 
	C155.971725,167.431091 159.067474,169.480255 159.229324,165.500595 
	C160.457916,165.903885 161.686493,166.307190 162.898514,166.705032 
	C162.945068,165.809097 163.037979,164.021484 163.120590,162.431915 
	C165.787338,162.431915 168.216965,162.431915 170.849579,162.431915 
	C170.849579,163.895920 170.849579,165.532898 170.849579,167.550110 
	C175.363281,167.619156 175.813126,169.682693 174.088089,173.341751 
	C173.390182,174.822067 173.802200,176.925262 174.014496,178.708633 
	C174.253220,180.713837 174.836716,182.677994 175.448990,185.477249 
	C173.454865,184.826538 172.423904,184.490112 171.087708,184.450974 
z"/>
<path fill="#FFD400" opacity="1.000000" stroke="none" 
	d="
M85.004913,22.251190 
	C87.354584,20.912178 89.699875,20.048603 93.004089,18.831940 
	C93.004089,26.621931 92.670013,33.215893 93.101814,39.759312 
	C93.501511,45.816208 90.717621,52.629715 97.477844,59.155132 
	C98.498070,54.378468 99.774490,50.880081 99.897194,47.341679 
	C100.207787,38.385059 100.000259,29.410471 100.000259,20.535439 
	C107.778259,18.054617 107.999535,18.214647 107.999817,26.045206 
	C108.000343,40.489895 107.999969,54.934582 107.999969,70.627861 
	C104.865013,69.826317 102.331680,68.964775 99.729843,68.619827 
	C98.705978,68.484077 97.572792,69.750031 96.414711,69.954277 
	C89.677193,71.142517 85.080109,66.031044 85.018692,57.159351 
	C84.939240,45.682285 85.000099,34.204247 85.004913,22.251190 
z"/>
<path fill="#FFD300" opacity="1.000000" stroke="none" 
	d="
M42.042423,53.261280 
	C42.611938,50.472618 43.089645,48.101509 43.739288,45.778481 
	C45.610622,39.086906 51.452702,39.501534 57.469742,38.677410 
	C56.271797,35.885136 55.203983,33.396183 54.617447,32.029034 
	C50.580074,33.490147 47.266838,34.689194 43.904114,35.906151 
	C41.411121,27.997477 47.590836,17.584440 54.584606,18.872349 
	C58.824196,19.653072 63.869946,24.087854 63.938519,29.209843 
	C64.118736,42.671085 63.999401,56.136337 63.999401,70.463295 
	C61.092358,69.843651 58.738014,69.341820 56.261032,68.813850 
	C53.507683,69.152092 49.748180,70.672523 47.000786,69.600098 
	C44.980942,68.811661 43.945339,64.732086 43.099716,61.929485 
	C42.311390,59.316772 42.352909,56.453671 42.042423,53.261280 
M50.037010,52.961582 
	C49.729687,56.173122 50.115276,58.758865 54.663860,57.761497 
	C55.399052,55.037457 56.163128,52.206398 57.255871,48.157555 
	C54.292847,49.886993 52.310471,51.044052 50.037010,52.961582 
z"/>
<path fill="#FFFFFF" opacity="1.000000" stroke="none" 
	d="
M143.000000,127.171661 
	C142.666412,134.387085 142.491150,141.135727 141.955933,147.855667 
	C141.388962,154.974197 136.466736,159.582001 130.340652,158.979248 
	C125.137779,158.467331 122.977844,154.488815 121.868721,150.256454 
	C118.533226,137.528290 118.006714,124.766586 123.313187,112.351593 
	C124.805641,108.859848 127.626808,106.973701 131.668747,106.956154 
	C135.603302,106.939072 138.454514,108.661819 139.568161,112.228043 
	C141.041626,116.946541 141.885513,121.861649 143.000000,127.171661 
M135.998474,136.136505 
	C135.048141,131.260468 134.151749,126.371788 133.018951,121.538513 
	C132.947906,121.235298 130.450699,120.890831 130.059448,121.367569 
	C126.440559,125.777199 126.255463,139.755234 130.005630,144.492569 
	C130.417221,145.012482 132.729019,144.963058 132.932465,144.559341 
	C134.147293,142.148697 135.001953,139.556549 135.998474,136.136505 
z"/>
<path fill="#FFD400" opacity="1.000000" stroke="none" 
	d="
M129.000641,48.899567 
	C129.327362,41.853054 129.534393,35.283142 130.025024,28.734480 
	C130.327408,24.698456 135.226669,19.325024 138.345337,18.982815 
	C143.422760,18.425674 147.050980,19.607443 148.843567,26.813974 
	C150.587357,33.824341 150.893738,41.192261 151.900253,48.933746 
	C145.864807,48.933746 141.108047,48.933746 135.495926,48.933746 
	C136.353989,51.747757 136.613464,54.256466 137.878891,56.058910 
	C138.524994,56.979206 141.159973,57.197182 142.569839,56.735855 
	C145.125885,55.899490 147.437943,54.317406 150.368561,52.774582 
	C151.959030,60.073387 149.865280,64.847008 145.764404,68.651436 
	C140.569031,73.471245 131.488007,68.801971 130.080902,60.597420 
	C129.447937,56.906792 129.344421,53.125366 129.000641,48.899567 
M137.420944,34.113022 
	C136.863693,35.558254 136.306427,37.003487 135.658295,38.684402 
	C138.772812,38.684402 141.298752,38.684402 144.104492,38.684402 
	C143.313171,36.546108 142.834351,34.674458 141.959045,33.011471 
	C140.313934,29.885878 138.931244,30.562305 137.420944,34.113022 
z"/>
<path fill="#FFFFFF" opacity="1.000000" stroke="none" 
	d="
M89.000000,145.985474 
	C89.000000,150.125351 89.000000,153.768402 89.000000,157.703903 
	C86.726257,157.703903 84.657333,157.703903 81.999977,157.703903 
	C81.999977,148.096100 82.154510,138.332230 81.915810,128.577972 
	C81.832733,125.182877 82.345810,120.621925 75.086029,121.162086 
	C74.567993,133.267166 74.051208,145.343048 73.521805,157.713776 
	C71.709076,157.713776 69.640335,157.713776 67.283134,157.713776 
	C67.283134,141.427582 67.283134,125.025665 67.283134,108.195808 
	C69.801605,108.496674 72.983360,106.333794 74.073929,109.284447 
	C77.063698,108.524261 80.559769,106.455711 82.826790,107.385101 
	C85.172707,108.346840 87.548088,112.112511 87.782951,114.835220 
	C88.660851,125.012283 88.666939,135.264557 89.000000,145.985474 
z"/>
<path fill="#FFD400" opacity="1.000000" stroke="none" 
	d="
M181.716660,41.228649 
	C188.486359,47.682259 186.163361,60.591228 183.158493,66.251434 
	C180.637177,71.000771 175.764877,70.689507 171.756577,69.728195 
	C169.486191,69.183693 167.287521,66.215134 166.103485,63.820660 
	C164.720261,61.023453 164.477905,57.662102 163.665298,54.227364 
	C166.456787,54.227364 168.749710,54.227364 171.501419,54.227364 
	C171.584274,54.435104 171.665146,55.086391 172.029129,55.466831 
	C173.155731,56.644417 174.390091,57.718903 175.582626,58.833412 
	C176.387039,57.963982 178.004257,56.872898 177.839249,56.267826 
	C177.393433,54.633003 176.505646,52.270996 175.236526,51.841171 
	C164.067780,48.058567 163.858337,37.246841 165.690872,28.856081 
	C167.316605,21.412270 169.848373,19.326061 174.490311,18.938744 
	C180.963562,18.398621 184.177139,23.044413 184.979416,30.541370 
	C185.118027,31.836704 184.999023,33.159607 184.999023,34.933327 
	C182.088379,34.355667 178.609192,37.060997 177.356445,32.075569 
	C177.234604,31.590656 174.593277,31.738846 173.121460,31.593161 
	C173.200317,32.998768 172.721573,35.065613 173.460388,35.688629 
	C175.881866,37.730637 178.745972,39.247791 181.716660,41.228649 
z"/>
<path fill="#FFD300" opacity="1.000000" stroke="none" 
	d="
M72.212051,67.740814 
	C71.282265,65.321648 70.132835,63.210232 70.087280,61.075268 
	C69.885185,51.602734 69.999718,42.123436 69.999718,33.746040 
	C68.236443,31.672514 66.059937,30.225368 66.206276,29.073271 
	C66.619095,25.823174 63.755154,21.813347 68.194885,19.258579 
	C69.135788,18.717154 69.789124,17.067001 69.920784,15.856527 
	C70.185471,13.423109 69.999512,10.940677 69.999512,8.242535 
	C72.422310,8.242535 74.484055,8.242535 76.838165,8.242535 
	C76.838165,11.995609 76.838165,15.608663 76.838165,19.522099 
	C78.594131,19.809423 80.119080,20.058947 81.808617,20.335400 
	C81.808617,24.059940 81.808617,27.673573 81.808617,31.652588 
	C80.316734,31.858833 78.780281,32.071239 77.319885,32.273132 
	C76.699768,54.593227 76.116409,56.562443 81.822533,58.729824 
	C81.822533,62.358757 81.822533,65.979301 81.822533,70.860268 
	C78.403206,69.824951 75.451889,68.931335 72.212051,67.740814 
z"/>
<path fill="#FFD300" opacity="1.000000" stroke="none" 
	d="
M123.305031,33.034420 
	C121.587090,37.416229 119.521614,41.719929 119.170372,46.159256 
	C118.557411,53.906326 118.999657,61.736893 118.999657,69.763123 
	C116.549812,69.763123 114.492180,69.763123 112.226761,69.763123 
	C112.226761,53.146358 112.226761,36.733059 112.226761,19.835577 
	C114.848663,20.076056 117.171661,20.289118 120.374336,20.582861 
	C121.431625,20.173059 123.755501,19.272333 127.013161,18.009676 
	C127.411446,22.332802 127.667946,25.529526 128.010208,28.717041 
	C128.358673,31.962446 126.996864,33.416096 123.305031,33.034420 
z"/>
<path fill="#FFFFFF" opacity="1.000000" stroke="none" 
	d="
M63.000000,116.054779 
	C63.000000,130.186539 63.000000,143.827255 63.000000,157.733261 
	C60.346268,157.733261 57.941277,157.733261 55.262806,157.733261 
	C55.262806,141.356079 55.262806,124.942070 55.262806,108.263359 
	C57.660717,108.263359 60.066704,108.263359 63.000000,108.263359 
	C63.000000,110.674530 63.000000,113.119141 63.000000,116.054779 
z"/>
<path fill="#FFFFFF" opacity="1.000000" stroke="none" 
	d="
M110.390594,183.248566 
	C107.870583,184.074738 105.350578,184.900925 102.290001,185.904312 
	C102.290001,177.723007 102.290001,170.523834 102.290001,163.135880 
	C105.829552,163.046204 109.698128,161.595093 110.261909,167.373184 
	C110.345879,168.233704 113.122925,168.831451 114.720306,169.581879 
	C115.392479,169.150421 116.715492,168.301178 118.358925,167.246277 
	C119.891685,178.837372 116.357376,189.707336 111.006126,189.784546 
	C111.006126,188.166443 111.006126,186.549103 111.408325,184.311310 
	C111.810524,181.666519 111.810524,179.642181 111.810524,177.617844 
	C111.641251,177.631622 111.471970,177.645386 111.302696,177.659149 
	C110.998665,179.522293 110.694633,181.385437 110.390594,183.248566 
z"/>
<path fill="#FFD300" opacity="1.000000" stroke="none" 
	d="
M159.171341,5.004222 
	C160.927261,5.001390 162.231598,5.001390 163.930679,5.001390 
	C163.479050,11.532438 163.071426,17.707798 162.607529,23.878927 
	C162.523315,24.999121 162.070282,26.096153 162.023102,27.213823 
	C161.729752,34.163601 161.752014,34.164539 154.004913,33.827538 
	C154.338196,29.488054 154.552277,25.143391 155.035477,20.828863 
	C155.561386,16.132816 156.280350,11.455156 157.067551,6.795228 
	C157.180740,6.125250 158.147842,5.599531 159.171341,5.004222 
z"/>
<path fill="#FFFFFF" opacity="1.000000" stroke="none" 
	d="
M55.523170,90.000465 
	C58.712711,86.736809 60.588104,87.487892 62.595818,90.929886 
	C64.692001,94.523560 64.217995,97.903130 62.307793,100.945412 
	C61.523567,102.194405 58.972878,102.783211 57.231239,102.772530 
	C56.480328,102.767921 55.224491,100.527237 55.105450,99.219742 
	C54.836761,96.268608 55.133194,93.266006 55.523170,90.000465 
z"/>
<path fill="#FFFF00" opacity="1.000000" stroke="none" 
	d="
M19.889378,67.426254 
	C19.531303,63.677513 19.113152,59.481674 19.032288,55.279350 
	C18.903019,48.561485 18.997694,41.839306 18.997694,34.092144 
	C19.941807,35.375431 20.350431,35.930855 20.861492,36.795425 
	C20.642620,38.580254 20.059807,40.053001 20.043192,41.532104 
	C19.947945,50.012653 19.987099,58.494713 19.889378,67.426254 
z"/>
<path fill="#000000" opacity="1.000000" stroke="none" 
	d="
M108.999954,134.794022 
	C108.271828,138.004044 107.691566,140.817627 106.738579,143.498749 
	C106.386742,144.488586 105.157036,145.166382 104.327721,145.986496 
	C103.640007,145.209839 102.739456,144.537872 102.297859,143.640137 
	C98.337227,135.588699 99.477173,127.755554 103.673721,119.527222 
	C108.870720,123.460396 109.016731,128.871216 108.999954,134.794022 
z"/>
<path fill="#000000" opacity="1.000000" stroke="none" 
	d="
M50.182552,52.581345 
	C52.310471,51.044052 54.292847,49.886993 57.255871,48.157555 
	C56.163128,52.206398 55.399052,55.037457 54.663860,57.761497 
	C50.115276,58.758865 49.729687,56.173122 50.182552,52.581345 
z"/>
<path fill="#000000" opacity="1.000000" stroke="none" 
	d="
M135.987976,136.580902 
	C135.001953,139.556549 134.147293,142.148697 132.932465,144.559341 
	C132.729019,144.963058 130.417221,145.012482 130.005630,144.492569 
	C126.255463,139.755234 126.440559,125.777199 130.059448,121.367569 
	C130.450699,120.890831 132.947906,121.235298 133.018951,121.538513 
	C134.151749,126.371788 135.048141,131.260468 135.987976,136.580902 
z"/>
<path fill="#000000" opacity="1.000000" stroke="none" 
	d="
M137.688660,33.821808 
	C138.931244,30.562305 140.313934,29.885878 141.959045,33.011471 
	C142.834351,34.674458 143.313171,36.546108 144.104492,38.684402 
	C141.298752,38.684402 138.772812,38.684402 135.658295,38.684402 
	C136.306427,37.003487 136.863693,35.558254 137.688660,33.821808 
z"/>
<path fill="#000000" opacity="1.000000" stroke="none" 
	d="
M110.556152,183.460724 
	C110.694633,181.385437 110.998665,179.522293 111.302696,177.659149 
	C111.471970,177.645386 111.641251,177.631622 111.810524,177.617844 
	C111.810524,179.642181 111.810524,181.666519 111.446472,183.881592 
	C110.962189,183.939163 110.841949,183.806015 110.556152,183.460724 
z"/>
</svg>